<?xml version="1.0" encoding="utf-8"?>
<!-- Generator: Adobe Illustrator 27.5.0, SVG Export Plug-In . SVG Version: 6.00 Build 0)  -->
<svg version="1.1" xmlns="http://www.w3.org/2000/svg" xmlns:xlink="http://www.w3.org/1999/xlink" x="0px" y="0px"
	 viewBox="0 0 2200 2200" style="enable-background:new 0 0 2200 2200;" xml:space="preserve">
<g id="Objects" fill="white">
	<g>
		<path d="M1067.875,1296.816c110.966,0,214.583,17.579,307.973,52.247c87.881,32.624,169.242,81.329,241.824,144.763
			c2.684,2.345,6,3.494,9.304,3.494c3.94,0,7.861-1.637,10.658-4.837c5.141-5.883,4.54-14.82-1.343-19.962
			c-75.175-65.699-159.487-116.161-250.597-149.982c-96.552-35.843-203.481-54.016-317.819-54.016
			c-7.813,0-14.146,6.333-14.146,14.146S1060.062,1296.816,1067.875,1296.816z"/>
		<path d="M891.325,1313.306c0.893,0,1.799-0.085,2.708-0.262c21.549-4.177,43.734-7.592,65.939-10.149
			c7.762-0.894,13.329-7.91,12.436-15.672c-0.894-7.763-7.923-13.334-15.672-12.436c-22.923,2.64-45.831,6.166-68.088,10.481
			c-7.67,1.486-12.683,8.91-11.195,16.58C878.764,1308.609,884.687,1313.306,891.325,1313.306z"/>
		<path d="M641.131,1405.657c2.379,0,4.791-0.602,7.004-1.865c53.454-30.532,110.667-54.865,170.051-72.321
			c7.495-2.203,11.786-10.066,9.582-17.563c-2.202-7.494-10.061-11.787-17.563-9.582c-61.491,18.076-120.741,43.275-176.104,74.897
			c-6.784,3.875-9.143,12.517-5.268,19.301C631.445,1403.096,636.219,1405.657,641.131,1405.657z"/>
		<path d="M1862.098,1556.442c-22.493-1.703-42.102,15.171-43.795,37.666c-4.782,63.557-9.566,127.117-14.351,190.676
			c-26.284-46.809-54.432-90.105-84.148-129.385c-50.956-67.354-108.071-124.97-169.759-171.245
			c-65.685-49.274-138.378-87.075-216.061-112.353c-81.482-26.514-170.653-39.957-265.034-39.957
			c-130.638,0-252.087,27.237-360.975,80.955c-87.12,42.979-166.22,102.822-235.104,177.869
			c-116.951,127.415-163.712,253.896-165.645,259.218c-6.77,18.634,2.849,39.228,21.482,45.997
			c18.634,6.769,39.228-2.849,45.998-21.482c0.424-1.169,43.697-118.218,151.058-235.185
			c62.856-68.479,134.848-122.995,213.976-162.031c98.922-48.802,209.685-73.546,329.21-73.546
			c86.825,0,168.521,12.258,242.819,36.435c70.162,22.83,135.834,56.983,195.192,101.512
			c56.326,42.254,108.673,95.12,155.586,157.13c30.751,40.647,59.781,86.039,86.717,135.534
			c-12.807-6.998-25.614-13.996-38.421-20.994c-49.165-26.866-98.33-53.733-147.503-80.596
			c-19.795-10.814-44.612-3.533-55.428,16.264c-10.814,19.797-3.533,44.612,16.264,55.428
			c49.169,26.86,98.331,53.726,147.494,80.591c47.643,26.035,95.286,52.07,142.937,78.102c6.102,3.333,12.841,5,19.582,5
			c6.71,0,13.422-1.652,19.503-4.957c12.19-6.624,20.185-18.984,21.228-32.819c8.291-110.016,16.567-220.022,24.844-330.03
			C1901.456,1577.742,1884.593,1558.135,1862.098,1556.442z"/>
		<path d="M1775.76,1972.08l-211.522-114.994c-6.966-3.787-15.686-1.21-19.474,5.757c-3.788,6.968-1.21,15.686,5.757,19.474
			l211.522,114.994c2.179,1.185,4.528,1.746,6.846,1.746c5.092,0,10.024-2.715,12.628-7.503
			C1785.305,1984.586,1782.727,1975.868,1775.76,1972.08z"/>
	</g>
</g>
</svg>
