<svg width="520" height="86" viewBox="0 0 520 86" fill="none" xmlns="http://www.w3.org/2000/svg">
<path d="M28.375 86C22.75 86 17.875 84.9375 13.75 82.8125C9.625 80.6458 6.41667 77.75 4.125 74.125C1.875 70.5 0.75 66.5208 0.75 62.1875V24.1875C0.75 19.8125 1.875 15.8333 4.125 12.25C6.41667 8.625 9.625 5.75 13.75 3.625C17.875 1.45833 22.75 0.375 28.375 0.375H47.625C53.25 0.375 58.125 1.45833 62.25 3.625C66.4167 5.75 69.625 8.625 71.875 12.25C74.125 15.8333 75.25 19.8125 75.25 24.1875V62.1875C75.25 66.5208 74.125 70.5 71.875 74.125C69.625 77.75 66.4167 80.6458 62.25 82.8125C58.125 84.9375 53.25 86 47.625 86H28.375ZM17 57.6875H23.6875V13.1875L26.75 12.625H33.875L36.5625 13.1875V39.6875H43.25V13.1875L45.9375 12.625H53.125L56.1875 13.1875V57.6875H62.8125V10.875L58.875 6.875L53.625 6H45.4375L42.0625 7L39.9375 11.3125L37.875 7L34.4375 6H26.25L21 6.875L17 10.875V57.6875ZM102.375 86C96.75 86 91.875 84.9375 87.75 82.8125C83.625 80.6458 80.4167 77.75 78.125 74.125C75.875 70.5 74.75 66.5208 74.75 62.1875V24.1875C74.75 19.8125 75.875 15.8333 78.125 12.25C80.4167 8.625 83.625 5.75 87.75 3.625C91.875 1.45833 96.75 0.375 102.375 0.375H121.625C127.25 0.375 132.125 1.45833 136.25 3.625C140.417 5.75 143.625 8.625 145.875 12.25C148.125 15.8333 149.25 19.8125 149.25 24.1875V62.1875C149.25 66.5208 148.125 70.5 145.875 74.125C143.625 77.75 140.417 80.6458 136.25 82.8125C132.125 84.9375 127.25 86 121.625 86H102.375ZM104.562 57.6875H118.25L123.125 56.9375L129.312 57.625V10.75L125.062 6.75L118.812 6H104.562L97.25 6.875L98.8125 13.6875L104.688 12.5H118.625L122.375 13.3125L123.25 16.625V31.1875L118.812 30.4375H104.562L98.3125 31.375L94.3125 35.3125L93.4375 40.4375V47.75L94.3125 53L98.3125 56.9375L104.562 57.6875ZM104.938 51.0625L101 50.4375L100.125 46.6875V41.3125L100.625 37.75L104.938 37.125H118.5L123.25 37.625V50.4375L118.375 51.0625H104.938ZM176.375 86C170.75 86 165.875 84.9375 161.75 82.8125C157.625 80.6458 154.417 77.75 152.125 74.125C149.875 70.5 148.75 66.5208 148.75 62.1875V24.1875C148.75 19.8125 149.875 15.8333 152.125 12.25C154.417 8.625 157.625 5.75 161.75 3.625C165.875 1.45833 170.75 0.375 176.375 0.375H195.625C201.25 0.375 206.125 1.45833 210.25 3.625C214.417 5.75 217.625 8.625 219.875 12.25C222.125 15.8333 223.25 19.8125 223.25 24.1875V62.1875C223.25 66.5208 222.125 70.5 219.875 74.125C217.625 77.75 214.417 80.6458 210.25 82.8125C206.125 84.9375 201.25 86 195.625 86H176.375ZM169.5 57.6875H197.375L203.812 56.9375L207.75 53L208.625 47.625V16.125L207.75 10.875L203.812 6.875L197.375 6H169.5V57.6875ZM176 51.0625V12.625H197L201.375 13.3125L202 17V46.9375L201.125 50.4375L197 51.0625H176ZM250.375 86C244.75 86 239.875 84.9375 235.75 82.8125C231.625 80.6458 228.417 77.75 226.125 74.125C223.875 70.5 222.75 66.5208 222.75 62.1875V24.1875C222.75 19.8125 223.875 15.8333 226.125 12.25C228.417 8.625 231.625 5.75 235.75 3.625C239.875 1.45833 244.75 0.375 250.375 0.375H269.625C275.25 0.375 280.125 1.45833 284.25 3.625C288.417 5.75 291.625 8.625 293.875 12.25C296.125 15.8333 297.25 19.8125 297.25 24.1875V62.1875C297.25 66.5208 296.125 70.5 293.875 74.125C291.625 77.75 288.417 80.6458 284.25 82.8125C280.125 84.9375 275.25 86 269.625 86H250.375ZM254.5 57.6875H271.25L277.688 56.9375L281.625 53L282.5 47.625V16.125L281.625 10.875L277.688 6.875L271.25 6H254.5L248.125 6.875L244.125 10.875L243.375 16.125V47.625L244.125 53L248.25 56.9375L254.5 57.6875ZM254.875 51.0625L250.812 50.4375L249.875 46.6875V16.75L250.5 13.3125L254.875 12.625H270.875L275.25 13.3125L275.875 17V46.9375L275 50.4375L270.875 51.0625H254.875ZM324.375 86C318.75 86 313.875 84.9375 309.75 82.8125C305.625 80.6458 302.417 77.75 300.125 74.125C297.875 70.5 296.75 66.5208 296.75 62.1875V24.1875C296.75 19.8125 297.875 15.8333 300.125 12.25C302.417 8.625 305.625 5.75 309.75 3.625C313.875 1.45833 318.75 0.375 324.375 0.375H343.625C349.25 0.375 354.125 1.45833 358.25 3.625C362.417 5.75 365.625 8.625 367.875 12.25C370.125 15.8333 371.25 19.8125 371.25 24.1875V62.1875C371.25 66.5208 370.125 70.5 367.875 74.125C365.625 77.75 362.417 80.6458 358.25 82.8125C354.125 84.9375 349.25 86 343.625 86H324.375ZM317.125 57.6875H323.75V13.3125L328.625 12.5H343.625L347.938 13.1875L348.562 16.875V57.6875H355.25V16L354.375 10.75L350.375 6.75L344 6H328.375L317.125 7.5625V57.6875ZM398.375 86C392.75 86 387.875 84.9375 383.75 82.8125C379.625 80.6458 376.417 77.75 374.125 74.125C371.875 70.5 370.75 66.5208 370.75 62.1875V24.1875C370.75 19.8125 371.875 15.8333 374.125 12.25C376.417 8.625 379.625 5.75 383.75 3.625C387.875 1.45833 392.75 0.375 398.375 0.375H417.625C423.25 0.375 428.125 1.45833 432.25 3.625C436.417 5.75 439.625 8.625 441.875 12.25C444.125 15.8333 445.25 19.8125 445.25 24.1875V62.1875C445.25 66.5208 444.125 70.5 441.875 74.125C439.625 77.75 436.417 80.6458 432.25 82.8125C428.125 84.9375 423.25 86 417.625 86H398.375ZM391.125 57.6875H397.75V13.3125L402.625 12.5H417.625L421.938 13.1875L422.562 16.875V57.6875H429.25V16L428.375 10.75L424.375 6.75L418 6H402.375L391.125 7.5625V57.6875ZM472.375 86C466.75 86 461.875 84.9375 457.75 82.8125C453.625 80.6458 450.417 77.75 448.125 74.125C445.875 70.5 444.75 66.5208 444.75 62.1875V24.1875C444.75 19.8125 445.875 15.8333 448.125 12.25C450.417 8.625 453.625 5.75 457.75 3.625C461.875 1.45833 466.75 0.375 472.375 0.375H491.625C497.25 0.375 502.125 1.45833 506.25 3.625C510.417 5.75 513.625 8.625 515.875 12.25C518.125 15.8333 519.25 19.8125 519.25 24.1875V62.1875C519.25 66.5208 518.125 70.5 515.875 74.125C513.625 77.75 510.417 80.6458 506.25 82.8125C502.125 84.9375 497.25 86 491.625 86H472.375ZM474.562 57.6875H488.25L493.125 56.9375L499.312 57.625V10.75L495.062 6.75L488.812 6H474.562L467.25 6.875L468.812 13.6875L474.688 12.5H488.625L492.375 13.3125L493.25 16.625V31.1875L488.812 30.4375H474.562L468.312 31.375L464.312 35.3125L463.438 40.4375V47.75L464.312 53L468.312 56.9375L474.562 57.6875ZM474.938 51.0625L471 50.4375L470.125 46.6875V41.3125L470.625 37.75L474.938 37.125H488.5L493.25 37.625V50.4375L488.375 51.0625H474.938Z" fill="white"/>
</svg>
