<svg width="688" height="80" viewBox="0 0 688 80" fill="none" xmlns="http://www.w3.org/2000/svg">
<path d="M0 80V0H16V16H32V32H48V48H32V32H16V80H0ZM64 80V32H48V16H64V0H80V80H64ZM112 80V16H128V0H160V16H176V80H160V48H128V80H112ZM128 32H160V16.64H128V32ZM208 80V0H256V16H272V64H256V80H208ZM224 64H255.36V16H224V64ZM320 80V64H304V16H320V0H352V16H368V64H352V80H320ZM320 63.36H352V16.64H320V63.36ZM400 80V0H416V16H432V32H448V48H464V0H480V80H464V64H448V48H432V32H416V80H400ZM512 80V0H528V16H544V32H560V48H576V0H592V80H576V64H560V48H544V32H528V80H512ZM624 80V16H640V0H672V16H688V80H672V48H640V80H624ZM640 32H672V16.64H640V32Z" fill="white"/>
</svg>
