<svg width="317" height="101" viewBox="0 0 317 101" fill="none" xmlns="http://www.w3.org/2000/svg">
<path d="M62.125 10.75C62.2917 11.0833 62.375 12.25 62.375 14.25C62.4583 16.25 62.4583 18.6667 62.375 21.5C62.375 24.3333 62.2917 27.375 62.125 30.625C61.9583 33.7917 61.75 36.7917 61.5 39.625C61.3333 41.2083 61.0417 43.5833 60.625 46.75C60.2917 49.9167 59.875 53.4167 59.375 57.25C58.875 61.0833 58.3333 65.0417 57.75 69.125C57.25 73.125 56.75 76.8333 56.25 80.25C55.75 83.5833 55.2917 86.375 54.875 88.625C54.5417 90.875 54.2917 92.0833 54.125 92.25C53.7917 92.5 53.25 93.125 52.5 94.125C51.75 95.0417 50.9167 96 50 97C49.1667 97.9167 48.375 98.6667 47.625 99.25C46.875 99.8333 46.375 99.9167 46.125 99.5C45.9583 98.6667 45.875 96.0833 45.875 91.75C45.875 89.9167 45.875 87.625 45.875 84.875C45.9583 82.0417 46.0417 78.625 46.125 74.625C46.2917 70.625 46.5 65.9583 46.75 60.625C47 55.2917 47.2917 49.125 47.625 42.125C45.9583 47.7917 44.4583 52.7917 43.125 57.125C41.875 61.4583 40.75 65.25 39.75 68.5C38.8333 71.6667 38.0417 74.375 37.375 76.625C36.7083 78.7917 36.125 80.5833 35.625 82C34.5417 85.3333 33.8333 87.2917 33.5 87.875C33.1667 87.9583 32.625 87.7083 31.875 87.125C31.2083 86.5417 30.4167 85.7083 29.5 84.625C28.6667 83.4583 27.7917 82.0833 26.875 80.5C26.0417 78.9167 25.3333 77.1667 24.75 75.25C24.1667 73.5 23.4167 71.1667 22.5 68.25C21.6667 65.75 20.5833 62.5 19.25 58.5C17.9167 54.4167 16.2917 49.3333 14.375 43.25C14.875 50.0833 15.2917 56.0833 15.625 61.25C15.9583 66.4167 16.2083 70.9167 16.375 74.75C16.625 78.5833 16.7917 81.8333 16.875 84.5C17.0417 87.0833 17.125 89.25 17.125 91C17.2083 95 17.0833 97.2917 16.75 97.875C15.9167 97.875 15 97.5 14 96.75C13.0833 95.9167 12.1667 94.9583 11.25 93.875C10.4167 92.7083 9.66667 91.5833 9 90.5C8.41667 89.4167 8.08333 88.625 8 88.125C7.91667 87.7917 7.66667 86.25 7.25 83.5C6.83333 80.75 6.33333 77.25 5.75 73C5.25 68.6667 4.66667 63.8333 4 58.5C3.41667 53.0833 2.83333 47.5833 2.25 42C1.75 36.4167 1.33333 31 1 25.75C0.666667 20.4167 0.5 15.6667 0.5 11.5C0.5 10.8333 1.33333 9.95833 3 8.875C4.66667 7.70833 6.54167 6.625 8.625 5.625C10.7917 4.54167 12.7917 3.625 14.625 2.875C16.4583 2.04167 17.5833 1.625 18 1.625C18.3333 1.625 18.6667 2.58333 19 4.5C19.4167 6.41667 19.875 8.83333 20.375 11.75C20.875 14.6667 21.4167 17.9167 22 21.5C22.5833 25.0833 23.25 28.5 24 31.75C24.5833 35.0833 25.2917 38.5417 26.125 42.125C26.7917 45.2083 27.5417 48.625 28.375 52.375C29.2917 56.0417 30.2917 59.625 31.375 63.125C32.5417 58.0417 33.5833 53.4583 34.5 49.375C35.5 45.2083 36.375 41.6667 37.125 38.75C38.0417 35.3333 38.8333 32.2917 39.5 29.625C41 23.125 42.4583 18 43.875 14.25C45.375 10.5 46.3333 8.29167 46.75 7.625C47 7.29167 47.875 7.20833 49.375 7.375C50.9583 7.54167 52.6667 7.83333 54.5 8.25C56.3333 8.58333 58 9 59.5 9.5C61.0833 10 61.9583 10.4167 62.125 10.75ZM101.25 31.25C101.75 31.8333 102.208 32.4583 102.625 33.125C103.042 33.7083 103.417 34.5417 103.75 35.625C104.083 36.625 104.333 37.9583 104.5 39.625C104.75 41.2917 104.875 43.4583 104.875 46.125C104.875 50.375 104.75 54.6667 104.5 59C104.333 63.25 104.167 67 104 70.25C103.917 73.1667 103.833 75.875 103.75 78.375C103.667 80.875 103.583 83.0833 103.5 85C103.417 86.8333 103.292 88.2917 103.125 89.375C103.042 90.4583 102.958 91.0417 102.875 91.125C102.542 91.375 102 91.2917 101.25 90.875C100.583 90.375 99.8333 89.75 99 89C98.25 88.25 97.5417 87.4583 96.875 86.625C96.2083 85.7917 95.7917 85.125 95.625 84.625C95.625 84.2083 95.5 83 95.25 81C93.25 82.1667 91.0417 83 88.625 83.5C86.2083 83.9167 83.7917 84.0833 81.375 84C79.0417 83.8333 76.875 83.375 74.875 82.625C72.875 81.875 71.375 80.875 70.375 79.625C69.9583 79.125 69.5833 78.375 69.25 77.375C69 76.375 68.75 75.25 68.5 74C68.3333 72.6667 68.1667 71.2917 68 69.875C67.8333 68.375 67.7083 67 67.625 65.75C67.4583 62.5 67.875 59.7083 68.875 57.375C69.875 54.9583 71.7083 53.1667 74.375 52C75.5417 51.5 77.0833 51.25 79 51.25C81 51.1667 82.9583 51.25 84.875 51.5C86.875 51.6667 88.6667 51.9167 90.25 52.25C91.8333 52.5 92.8333 52.7083 93.25 52.875C92.9167 48.625 92.6667 44.9583 92.5 41.875C92.3333 38.7083 92 36.6667 91.5 35.75C91.0833 35.1667 90.5833 34.5833 90 34C89.5 33.5833 88.8333 33.125 88 32.625C87.1667 32.125 86.1667 31.75 85 31.5C84.0833 31.3333 83.25 31.7083 82.5 32.625C81.8333 33.4583 81.2083 34.9583 80.625 37.125C80.125 39.2083 79.8333 42.4167 79.75 46.75C76.8333 46.8333 74.5833 46.8333 73 46.75C71.5 46.5833 70.375 46.4167 69.625 46.25C68.7083 46.0833 68.1667 45.875 68 45.625C67.8333 45.2917 67.9167 44.0833 68.25 42C68.5833 39.8333 69.0417 37.5 69.625 35C70.2917 32.5 71.0417 30.125 71.875 27.875C72.7917 25.625 73.75 24.2083 74.75 23.625C76.75 22.4583 79.125 22.0417 81.875 22.375C84.7083 22.7083 87.4583 23.4167 90.125 24.5C92.7917 25.5833 95.1667 26.7917 97.25 28.125C99.3333 29.4583 100.667 30.5 101.25 31.25ZM93.5 67.75C93.5 67.3333 93.5417 66.7917 93.625 66.125C93.7083 65.375 93.75 64.625 93.75 63.875C93.75 63.125 93.7083 62.4167 93.625 61.75C93.625 61.0833 93.5417 60.5833 93.375 60.25C93.125 59.75 92.375 59.3333 91.125 59C89.9583 58.6667 88.625 58.4583 87.125 58.375C85.625 58.2083 84.2083 58.1667 82.875 58.25C81.5417 58.25 80.625 58.4167 80.125 58.75C79.4583 59.1667 78.9583 59.75 78.625 60.5C78.375 61.25 78.2083 62.4167 78.125 64C78.125 64.75 78.1667 65.5417 78.25 66.375C78.3333 67.2083 78.4167 68.0417 78.5 68.875C78.6667 69.625 78.8333 70.2917 79 70.875C79.25 71.4583 79.5 71.8333 79.75 72C80.3333 72.4167 81.3333 72.7917 82.75 73.125C84.25 73.375 85.75 73.4583 87.25 73.375C88.75 73.2083 90.125 72.7083 91.375 71.875C92.625 71.0417 93.3333 69.6667 93.5 67.75ZM147.75 14.25C148 16.25 148.083 20.25 148 26.25C148 28.8333 147.917 31.9583 147.75 35.625C147.667 39.2917 147.5 43.7083 147.25 48.875C147 53.9583 146.667 59.875 146.25 66.625C145.917 73.2917 145.458 80.875 144.875 89.375C144.708 90.2083 144.333 91.125 143.75 92.125C143.25 93.125 142.667 94.0417 142 94.875C141.333 95.7083 140.625 96.4167 139.875 97C139.125 97.5 138.458 97.6667 137.875 97.5C137.708 97.4167 137.5 96.75 137.25 95.5C137.083 94.25 136.917 92.5 136.75 90.25C133 91.9167 129.458 93.0417 126.125 93.625C122.792 94.2083 120.083 93.8333 118 92.5C117.167 92 116.333 91.125 115.5 89.875C114.75 88.5417 114.042 87 113.375 85.25C112.708 83.5 112.167 81.6667 111.75 79.75C111.333 77.75 111.125 75.875 111.125 74.125C111.125 72.875 111.208 71.2083 111.375 69.125C111.542 67.0417 111.75 64.7917 112 62.375C112.25 59.875 112.542 57.375 112.875 54.875C113.208 52.2917 113.542 49.9167 113.875 47.75C114.208 45.5833 114.5 43.75 114.75 42.25C115 40.75 115.208 39.8333 115.375 39.5C115.542 38.5 115.833 37.6667 116.25 37C116.75 36.3333 117.167 35.8333 117.5 35.5C118.333 34.8333 119.542 34.3333 121.125 34C122.792 33.6667 124.5 33.4583 126.25 33.375C128.083 33.2917 129.792 33.3333 131.375 33.5C132.958 33.5833 134.125 33.75 134.875 34H135.125C134.958 23.6667 134.958 15.7083 135.125 10.125C135.292 4.54167 135.625 1.54167 136.125 1.125C136.458 0.875 137.208 1.08333 138.375 1.75C139.542 2.41667 140.75 3.375 142 4.625C143.333 5.875 144.542 7.375 145.625 9.125C146.792 10.7917 147.5 12.5 147.75 14.25ZM128.75 84.25C129.917 84 130.958 83.7083 131.875 83.375C132.875 82.9583 133.708 82.5833 134.375 82.25C135.125 81.9167 135.75 81.5 136.25 81C136.167 78.8333 136.083 76.4167 136 73.75C135.917 71 135.833 68.1667 135.75 65.25C135.667 62.3333 135.583 59.375 135.5 56.375C135.417 53.2917 135.333 50.3333 135.25 47.5C135.25 46.5833 135.083 45.7917 134.75 45.125C134.5 44.4583 134.167 43.9167 133.75 43.5C133.5 43.3333 133 43.125 132.25 42.875C131.5 42.5417 130.625 42.2917 129.625 42.125C128.708 41.875 127.792 41.75 126.875 41.75C126.042 41.75 125.458 41.9167 125.125 42.25C124.958 42.3333 124.792 43.1667 124.625 44.75C124.542 46.25 124.417 48.1667 124.25 50.5C124.167 52.75 124.042 55.2083 123.875 57.875C123.792 60.5417 123.708 63.0417 123.625 65.375C123.542 67.7083 123.458 69.7083 123.375 71.375C123.292 73.0417 123.25 73.9583 123.25 74.125C123.25 75.5417 123.417 76.875 123.75 78.125C124.167 79.375 124.667 80.5 125.25 81.5C125.833 82.4167 126.458 83.1667 127.125 83.75C127.792 84.25 128.333 84.4167 128.75 84.25ZM181.75 28.625C182.333 29.125 182.875 30.0833 183.375 31.5C183.958 32.9167 184.458 34.625 184.875 36.625C185.292 38.625 185.667 40.7917 186 43.125C186.333 45.4583 186.625 47.75 186.875 50C187.125 52.25 187.292 54.375 187.375 56.375C187.542 58.2917 187.667 59.875 187.75 61.125C187.833 62.625 187.875 64.2083 187.875 65.875C187.958 67.4583 187.958 69 187.875 70.5C187.875 71.9167 187.792 73.2083 187.625 74.375C187.542 75.5417 187.375 76.4167 187.125 77C186.625 78.25 185.75 79.125 184.5 79.625C183.333 80.0417 182 80.3333 180.5 80.5C179.75 80.5833 178.458 80.625 176.625 80.625C174.875 80.5417 172.958 80.4583 170.875 80.375C168.875 80.2083 166.958 80.0417 165.125 79.875C163.292 79.7083 161.917 79.5417 161 79.375C159.167 78.9583 157.833 78.4167 157 77.75C156.25 77.0833 155.5 76.125 154.75 74.875C154.5 74.375 154.292 73.125 154.125 71.125C153.958 69.0417 153.833 66.5833 153.75 63.75C153.75 60.8333 153.792 57.7083 153.875 54.375C153.958 51.0417 154.083 47.875 154.25 44.875C154.5 41.875 154.75 39.25 155 37C155.333 34.75 155.75 33.25 156.25 32.5C157.083 31.3333 158.5 30.25 160.5 29.25C162.583 28.25 164.458 27.4583 166.125 26.875C166.958 26.625 168.042 26.4583 169.375 26.375C170.792 26.2083 172.25 26.2083 173.75 26.375C175.333 26.4583 176.833 26.7083 178.25 27.125C179.667 27.4583 180.833 27.9583 181.75 28.625ZM174.75 67.375C174.917 67.0417 175.083 66.0417 175.25 64.375C175.5 62.625 175.667 60.5417 175.75 58.125C175.917 55.7083 176 53.125 176 50.375C176.083 47.625 176.125 45.0833 176.125 42.75C176.125 40.4167 176.042 38.4583 175.875 36.875C175.708 35.2083 175.5 34.25 175.25 34C174.833 33.6667 174.208 33.5417 173.375 33.625C172.625 33.625 171.833 33.75 171 34C170.167 34.1667 169.417 34.4167 168.75 34.75C168.083 35 167.625 35.25 167.375 35.5C166.292 36.4167 165.708 37.9167 165.625 40C165.625 40.5833 165.542 42.25 165.375 45C165.292 47.6667 165.25 50.5833 165.25 53.75C165.25 56.8333 165.292 59.7083 165.375 62.375C165.542 65.0417 165.833 66.6667 166.25 67.25C166.667 67.8333 167.25 68.2917 168 68.625C168.833 68.875 169.667 69 170.5 69C171.417 69 172.25 68.875 173 68.625C173.833 68.2917 174.417 67.875 174.75 67.375ZM230.125 44.625C230.125 45.9583 229.958 47.875 229.625 50.375C229.375 52.875 229 55.625 228.5 58.625C228 61.5417 227.458 64.5833 226.875 67.75C226.375 70.8333 225.833 73.6667 225.25 76.25C224.75 78.8333 224.292 81 223.875 82.75C223.542 84.5 223.333 85.4583 223.25 85.625C223.083 85.875 222.625 86.0417 221.875 86.125C221.208 86.125 220.417 86.0417 219.5 85.875C218.667 85.7083 217.875 85.4583 217.125 85.125C216.458 84.7917 216.042 84.375 215.875 83.875C215.792 83.5417 215.75 82.375 215.75 80.375C215.833 78.375 215.917 76 216 73.25C216.167 70.4167 216.333 67.4167 216.5 64.25C216.667 61 216.833 58 217 55.25C217.25 52.4167 217.417 50 217.5 48C217.667 46 217.75 44.7917 217.75 44.375C217.75 42.875 217.583 41.4583 217.25 40.125C217 38.7083 216.667 37.5 216.25 36.5C215.833 35.5 215.333 34.75 214.75 34.25C214.25 33.6667 213.792 33.4583 213.375 33.625C212.292 33.7917 211.375 34.0833 210.625 34.5C209.875 34.8333 209.25 35.2083 208.75 35.625C208.167 36.125 207.708 36.7083 207.375 37.375C207.292 37.5417 207.125 38.0417 206.875 38.875C206.708 39.7083 206.625 40.6667 206.625 41.75C206.625 42.0833 206.625 43.2917 206.625 45.375C206.625 47.375 206.583 49.7917 206.5 52.625C206.5 55.4583 206.458 58.5417 206.375 61.875C206.375 65.125 206.333 68.1667 206.25 71C206.25 73.75 206.208 76.125 206.125 78.125C206.042 80.125 205.958 81.25 205.875 81.5C205.708 82 205.292 82.7083 204.625 83.625C203.958 84.4583 203.208 85.25 202.375 86C201.542 86.75 200.75 87.3333 200 87.75C199.25 88.0833 198.75 88 198.5 87.5C198.25 87.25 198 86.0417 197.75 83.875C197.5 81.625 197.208 78.9167 196.875 75.75C196.625 72.5 196.333 69 196 65.25C195.667 61.4167 195.375 57.75 195.125 54.25C194.875 50.75 194.667 47.5833 194.5 44.75C194.333 41.9167 194.208 39.875 194.125 38.625C194.042 36.875 193.958 34.9167 193.875 32.75C193.792 30.5 193.708 28.4167 193.625 26.5C193.625 24.5 193.625 22.7917 193.625 21.375C193.708 19.875 193.875 18.9583 194.125 18.625C194.292 18.2917 194.833 18.2083 195.75 18.375C196.75 18.5417 197.792 18.875 198.875 19.375C200.042 19.7917 201.125 20.3333 202.125 21C203.125 21.5833 203.792 22.1667 204.125 22.75C204.292 23.25 204.5 23.8333 204.75 24.5C205 25.0833 205.208 26.0833 205.375 27.5C206.792 26.6667 208.333 25.9167 210 25.25C211.667 24.5 213.292 23.9583 214.875 23.625C216.542 23.2083 218.125 23.0833 219.625 23.25C221.125 23.3333 222.458 23.75 223.625 24.5C224.375 25.0833 225.125 26.0833 225.875 27.5C226.708 28.9167 227.417 30.5833 228 32.5C228.667 34.4167 229.167 36.4583 229.5 38.625C229.917 40.7083 230.125 42.7083 230.125 44.625ZM273.125 44.625C273.125 45.9583 272.958 47.875 272.625 50.375C272.375 52.875 272 55.625 271.5 58.625C271 61.5417 270.458 64.5833 269.875 67.75C269.375 70.8333 268.833 73.6667 268.25 76.25C267.75 78.8333 267.292 81 266.875 82.75C266.542 84.5 266.333 85.4583 266.25 85.625C266.083 85.875 265.625 86.0417 264.875 86.125C264.208 86.125 263.417 86.0417 262.5 85.875C261.667 85.7083 260.875 85.4583 260.125 85.125C259.458 84.7917 259.042 84.375 258.875 83.875C258.792 83.5417 258.75 82.375 258.75 80.375C258.833 78.375 258.917 76 259 73.25C259.167 70.4167 259.333 67.4167 259.5 64.25C259.667 61 259.833 58 260 55.25C260.25 52.4167 260.417 50 260.5 48C260.667 46 260.75 44.7917 260.75 44.375C260.75 42.875 260.583 41.4583 260.25 40.125C260 38.7083 259.667 37.5 259.25 36.5C258.833 35.5 258.333 34.75 257.75 34.25C257.25 33.6667 256.792 33.4583 256.375 33.625C255.292 33.7917 254.375 34.0833 253.625 34.5C252.875 34.8333 252.25 35.2083 251.75 35.625C251.167 36.125 250.708 36.7083 250.375 37.375C250.292 37.5417 250.125 38.0417 249.875 38.875C249.708 39.7083 249.625 40.6667 249.625 41.75C249.625 42.0833 249.625 43.2917 249.625 45.375C249.625 47.375 249.583 49.7917 249.5 52.625C249.5 55.4583 249.458 58.5417 249.375 61.875C249.375 65.125 249.333 68.1667 249.25 71C249.25 73.75 249.208 76.125 249.125 78.125C249.042 80.125 248.958 81.25 248.875 81.5C248.708 82 248.292 82.7083 247.625 83.625C246.958 84.4583 246.208 85.25 245.375 86C244.542 86.75 243.75 87.3333 243 87.75C242.25 88.0833 241.75 88 241.5 87.5C241.25 87.25 241 86.0417 240.75 83.875C240.5 81.625 240.208 78.9167 239.875 75.75C239.625 72.5 239.333 69 239 65.25C238.667 61.4167 238.375 57.75 238.125 54.25C237.875 50.75 237.667 47.5833 237.5 44.75C237.333 41.9167 237.208 39.875 237.125 38.625C237.042 36.875 236.958 34.9167 236.875 32.75C236.792 30.5 236.708 28.4167 236.625 26.5C236.625 24.5 236.625 22.7917 236.625 21.375C236.708 19.875 236.875 18.9583 237.125 18.625C237.292 18.2917 237.833 18.2083 238.75 18.375C239.75 18.5417 240.792 18.875 241.875 19.375C243.042 19.7917 244.125 20.3333 245.125 21C246.125 21.5833 246.792 22.1667 247.125 22.75C247.292 23.25 247.5 23.8333 247.75 24.5C248 25.0833 248.208 26.0833 248.375 27.5C249.792 26.6667 251.333 25.9167 253 25.25C254.667 24.5 256.292 23.9583 257.875 23.625C259.542 23.2083 261.125 23.0833 262.625 23.25C264.125 23.3333 265.458 23.75 266.625 24.5C267.375 25.0833 268.125 26.0833 268.875 27.5C269.708 28.9167 270.417 30.5833 271 32.5C271.667 34.4167 272.167 36.4583 272.5 38.625C272.917 40.7083 273.125 42.7083 273.125 44.625ZM313.25 31.25C313.75 31.8333 314.208 32.4583 314.625 33.125C315.042 33.7083 315.417 34.5417 315.75 35.625C316.083 36.625 316.333 37.9583 316.5 39.625C316.75 41.2917 316.875 43.4583 316.875 46.125C316.875 50.375 316.75 54.6667 316.5 59C316.333 63.25 316.167 67 316 70.25C315.917 73.1667 315.833 75.875 315.75 78.375C315.667 80.875 315.583 83.0833 315.5 85C315.417 86.8333 315.292 88.2917 315.125 89.375C315.042 90.4583 314.958 91.0417 314.875 91.125C314.542 91.375 314 91.2917 313.25 90.875C312.583 90.375 311.833 89.75 311 89C310.25 88.25 309.542 87.4583 308.875 86.625C308.208 85.7917 307.792 85.125 307.625 84.625C307.625 84.2083 307.5 83 307.25 81C305.25 82.1667 303.042 83 300.625 83.5C298.208 83.9167 295.792 84.0833 293.375 84C291.042 83.8333 288.875 83.375 286.875 82.625C284.875 81.875 283.375 80.875 282.375 79.625C281.958 79.125 281.583 78.375 281.25 77.375C281 76.375 280.75 75.25 280.5 74C280.333 72.6667 280.167 71.2917 280 69.875C279.833 68.375 279.708 67 279.625 65.75C279.458 62.5 279.875 59.7083 280.875 57.375C281.875 54.9583 283.708 53.1667 286.375 52C287.542 51.5 289.083 51.25 291 51.25C293 51.1667 294.958 51.25 296.875 51.5C298.875 51.6667 300.667 51.9167 302.25 52.25C303.833 52.5 304.833 52.7083 305.25 52.875C304.917 48.625 304.667 44.9583 304.5 41.875C304.333 38.7083 304 36.6667 303.5 35.75C303.083 35.1667 302.583 34.5833 302 34C301.5 33.5833 300.833 33.125 300 32.625C299.167 32.125 298.167 31.75 297 31.5C296.083 31.3333 295.25 31.7083 294.5 32.625C293.833 33.4583 293.208 34.9583 292.625 37.125C292.125 39.2083 291.833 42.4167 291.75 46.75C288.833 46.8333 286.583 46.8333 285 46.75C283.5 46.5833 282.375 46.4167 281.625 46.25C280.708 46.0833 280.167 45.875 280 45.625C279.833 45.2917 279.917 44.0833 280.25 42C280.583 39.8333 281.042 37.5 281.625 35C282.292 32.5 283.042 30.125 283.875 27.875C284.792 25.625 285.75 24.2083 286.75 23.625C288.75 22.4583 291.125 22.0417 293.875 22.375C296.708 22.7083 299.458 23.4167 302.125 24.5C304.792 25.5833 307.167 26.7917 309.25 28.125C311.333 29.4583 312.667 30.5 313.25 31.25ZM305.5 67.75C305.5 67.3333 305.542 66.7917 305.625 66.125C305.708 65.375 305.75 64.625 305.75 63.875C305.75 63.125 305.708 62.4167 305.625 61.75C305.625 61.0833 305.542 60.5833 305.375 60.25C305.125 59.75 304.375 59.3333 303.125 59C301.958 58.6667 300.625 58.4583 299.125 58.375C297.625 58.2083 296.208 58.1667 294.875 58.25C293.542 58.25 292.625 58.4167 292.125 58.75C291.458 59.1667 290.958 59.75 290.625 60.5C290.375 61.25 290.208 62.4167 290.125 64C290.125 64.75 290.167 65.5417 290.25 66.375C290.333 67.2083 290.417 68.0417 290.5 68.875C290.667 69.625 290.833 70.2917 291 70.875C291.25 71.4583 291.5 71.8333 291.75 72C292.333 72.4167 293.333 72.7917 294.75 73.125C296.25 73.375 297.75 73.4583 299.25 73.375C300.75 73.2083 302.125 72.7083 303.375 71.875C304.625 71.0417 305.333 69.6667 305.5 67.75Z" fill="white"/>
</svg>
