<svg width="427" height="118" viewBox="0 0 427 118" fill="none" xmlns="http://www.w3.org/2000/svg">
<path d="M0 76V0.479996H11.52V76H0ZM15.36 76V0.479996H26.88V76H15.36ZM30.72 76V0.479996H34.56V76H30.72ZM38.4 76V0.479996H42.24V76H38.4ZM53.76 76V0.479996H57.6V76H53.76ZM20.736 87.136H23.424L30.72 101.728L38.144 87.136H40.704V116.832H37.504V94.432L31.104 106.464H29.824L23.808 94.56V116.832H20.736V87.136ZM61.5 76V0.479996H73.02V76H61.5ZM76.86 76V0.479996H80.7V76H76.86ZM84.54 76V0.479996H88.38V76H84.54ZM99.9 76V0.479996H103.74V76H99.9ZM107.58 76V0.479996H119.1V76H107.58ZM96.956 108.128H87.356L84.412 116.832H81.084L91.964 86.624H92.348L103.356 116.832H99.9L96.956 108.128ZM96.06 105.568L92.22 94.304L88.252 105.568H96.06ZM123 76V0.479996H126.84V76H123ZM130.68 76V0.479996H134.52V76H130.68ZM138.36 76V0.479996H149.88V76H138.36ZM161.4 76V0.479996H165.24V76H161.4ZM169.08 76V0.479996H180.6V76H169.08ZM144.376 87.136H151.288C153.763 87.136 155.683 87.4773 157.048 88.16C158.499 88.8427 159.736 89.8667 160.76 91.232C162.723 93.792 163.704 97.4187 163.704 102.112C163.533 106.976 162.424 110.645 160.376 113.12C158.328 115.68 155.128 116.917 150.776 116.832H144.376V87.136ZM150.52 114.272C157.091 114.272 160.376 110.304 160.376 102.368C160.376 98.3573 159.651 95.2853 158.2 93.152C156.664 91.0187 154.275 89.952 151.032 89.952H147.576V114.272H150.52ZM184.5 76V0.479996H196.02V76H184.5ZM199.86 76V0.479996H203.7V76H199.86ZM207.54 76V0.479996H219.06V76H207.54ZM222.9 76V0.479996H226.74V76H222.9ZM238.26 76V0.479996H242.1V76H238.26ZM215.22 117.344C211.807 117.344 209.204 116.021 207.412 113.376C205.535 110.731 204.596 106.976 204.596 102.112C204.596 97.4187 205.535 93.7067 207.412 90.976C209.289 88.3307 211.892 87.008 215.22 87.008C218.548 87.008 221.151 88.3307 223.028 90.976C224.905 93.7067 225.844 97.4187 225.844 102.112C225.844 106.976 224.905 110.731 223.028 113.376C221.236 116.021 218.633 117.344 215.22 117.344ZM215.22 114.4C217.524 114.4 219.273 113.376 220.468 111.328C221.748 109.195 222.388 106.123 222.388 102.112C222.388 98.3573 221.748 95.3707 220.468 93.152C219.188 91.0187 217.439 89.952 215.22 89.952C213.001 89.952 211.252 91.0187 209.972 93.152C208.692 95.3707 208.052 98.3573 208.052 102.112C208.052 106.123 208.649 109.195 209.844 111.328C211.124 113.376 212.916 114.4 215.22 114.4ZM246 76V0.479996H249.84V76H246ZM253.68 76V0.479996H257.52V76H253.68ZM261.36 76V0.479996H272.88V76H261.36ZM276.72 76V0.479996H280.56V76H276.72ZM292.08 76V0.479996H303.6V76H292.08ZM267.248 87.136H270.448L282.864 109.152V87.136H286.576V87.52C286.32 87.6907 286.192 87.904 286.192 88.16C286.107 88.3307 286.064 88.7147 286.064 89.312V116.832H283.504L270.32 93.536V116.832H267.248V87.136ZM307.5 76V0.479996H311.34V76H307.5ZM315.18 76V0.479996H319.02V76H315.18ZM322.86 76V0.479996H334.38V76H322.86ZM338.22 76V0.479996H342.06V76H338.22ZM353.58 76V0.479996H365.1V76H353.58ZM328.748 87.136H331.948L344.364 109.152V87.136H348.076V87.52C347.82 87.6907 347.692 87.904 347.692 88.16C347.607 88.3307 347.564 88.7147 347.564 89.312V116.832H345.004L331.82 93.536V116.832H328.748V87.136ZM369 76V0.479996H380.52V76H369ZM384.36 76V0.479996H388.2V76H384.36ZM392.04 76V0.479996H395.88V76H392.04ZM407.4 76V0.479996H411.24V76H407.4ZM415.08 76V0.479996H426.6V76H415.08ZM404.456 108.128H394.856L391.912 116.832H388.584L399.464 86.624H399.848L410.856 116.832H407.4L404.456 108.128ZM403.56 105.568L399.72 94.304L395.752 105.568H403.56Z" fill="white"/>
</svg>
